<svg xmlns="http://www.w3.org/2000/svg" viewBox="0 0 16 16">
  <path d="M8 2.313c3.15 0 5.688 2.537 5.688 5.687 0 3.15-2.538 5.688-5.688 5.688S2.312 11.15 2.312 8 4.85 2.312 8 2.312zM8 1C4.15 1 1 4.15 1 8s3.15 7 7 7 7-3.15 7-7-3.15-7-7-7z"/>
  <path d="M9.662 10.012c-.437.35-1.05.613-1.662.613-1.487 0-2.625-1.137-2.625-2.625 0-1.487 1.138-2.625 2.625-2.625.7 0 1.4.263 1.837.787L10.8 5.2c-.7-.7-1.75-1.138-2.8-1.138-2.188 0-3.938 1.75-3.938 3.938S5.813 11.938 8 11.938c.963 0 1.75-.35 2.45-.876z"/>
</svg>