<svg xmlns="http://www.w3.org/2000/svg" viewBox="0 0 226.5 226.501">
  <path d="M78.892 91.198h-3.888v17.826h2.965c2.64 0 5.085-.706 5.085-5.824v-6.363c0-5.203-2.057-5.64-4.163-5.64zM155.518 91.198h-3.795v19.854h3.795c2.098 0 3.98-.39 3.98-5.086v-9.682c0-4.697-1.884-5.086-3.98-5.086z"/>
  <path d="M202 181.67h-8.902c.147-1.294.23-2.605.23-3.938V54.242c0-13.33-7.607-24.876-18.715-30.556C169.006 9.8 155.41 0 139.518 0H86.984C71.09 0 57.494 9.8 51.887 23.686 40.78 29.366 33.172 40.91 33.172 54.243v123.49c0 1.33.084 2.643.23 3.936H24.5c-5.522 0-10 4.477-10 10v24.83c0 5.523 4.478 10 10 10H202c5.523 0 10-4.477 10-10v-24.83c0-5.524-4.476-10-10-10zM94.528 145.16c-.76.867-1.856 1.363-3.01 1.363h-4.14c-1.977 0-3.656-1.44-3.955-3.396-.194-1.272-.277-2.927-.277-5.534v-10.145c0-6.648-2.786-7.205-5.64-7.205h-2.504v22.28c0 2.208-1.79 4-4 4H66.86c-2.21 0-4-1.792-4-4V83.977c0-2.21 1.79-4 4-4h12.307c10.937 0 16.03 5.035 16.03 15.846v5.072c0 6.264-1.815 10.556-5.538 13.054 3.83 2.397 5.63 6.835 5.63 13.778v9.96c0 1.75.032 3.08.195 4.31.153 1.145-.197 2.296-.957 3.162zm28.61-2.637c0 2.21-1.79 4-4 4h-4.143c-2.21 0-4-1.79-4-4V83.978c0-2.21 1.79-4 4-4h4.144c2.208 0 4 1.79 4 4v58.545zm48.503-37.202c0 14.012-8.768 16.952-16.122 16.952h-3.795v20.252c0 2.21-1.79 4-4 4h-4.143c-2.21 0-4-1.79-4-4V83.978c0-2.21 1.79-4 4-4h11.938c7.354 0 16.123 2.94 16.123 16.953v8.39z"/>
</svg>