<svg xmlns="http://www.w3.org/2000/svg" viewBox="0 0 486.991 486.991">
  <path d="M415.143 58.34c3.685-3.79 9.73-3.863 13.516-.178 3.778 3.666 3.86 9.72.177 13.507-.048.046-.13.13-.188.176L303.493 193.588l24.31 26.475L452.25 105.82c12.09-11.092 20.316-25.765 23.478-41.866l11.148-56.81c.382-1.958-.233-3.973-1.643-5.39C483.817.344 481.8-.27 479.843.112L423.035 11.26c-16.1 3.16-30.775 11.39-41.865 23.478L269.426 156.47l24.414 26.596L415.143 58.34zM161.5 274.043l-51.735 56.37c-17.35-12.004-37.024-20.932-58.507-25.38-10.344-2.166-20.437 4.486-22.573 14.83-2.146 10.327 4.495 20.44 14.83 22.574 15.803 3.275 30.29 9.787 43.172 18.45l-71.397 55.42C6.335 423.258.803 433.718.084 445.03c-.71 11.305 3.48 22.377 11.493 30.392 7.424 7.433 17.48 11.566 27.92 11.566.82 0 1.64-.018 2.472-.074 11.313-.71 21.77-6.24 28.72-15.196l54.177-69.793c6.12 10.83 10.746 22.622 13.36 35.223 1.864 9.03 9.81 15.233 18.682 15.233 1.287 0 2.582-.13 3.89-.4 10.335-2.136 16.977-12.248 14.832-22.574-3.805-18.405-11.037-35.4-20.476-50.857l60.092-55.168-53.75-49.34z"/>
  <path d="M471.7 416.308l-54.935-42.64-16.464-12.78c12.147-8.17 32.236-15.34 43.174-18.45 10.944-3.114 16.977-12.248 14.832-22.574-2.146-10.345-12.324-17.014-22.575-14.832-8.135 1.688-16.007 4.03-23.618 6.876-12.51 4.672-24.103 11.043-34.888 18.506L105.82 34.738c-11.092-12.09-25.766-20.316-41.864-23.48L7.146.113C6.763.038 6.38 0 5.998 0 4.422 0 2.89.625 1.753 1.754.346 3.17-.27 5.187.114 7.146L11.26 63.954c3.162 16.1 11.39 30.774 23.48 41.865l297.09 272.728c-6.956 11.39-12.47 23.684-16.453 36.753-1.418 4.665-3.022 9.265-4.02 14.106-2.145 10.326 4.496 20.438 14.83 22.574 1.308.27 2.605.4 3.89.4 6.57 0 12.595-3.422 16.056-8.852 1.213-1.902 2.145-4.028 2.63-6.38 2.612-12.6 7.24-24.392 13.358-35.223l11.53 14.85 42.648 54.943c6.95 8.957 17.408 14.487 28.722 15.196 11.305.708 22.38-3.47 30.393-11.492 8.013-8.015 12.2-19.087 11.49-30.393-.717-11.314-6.247-21.772-15.204-28.722zM266.664 266.562c-2.18 2.24-5.772 2.297-8.02.113L58.338 71.845c-.057-.046-.14-.13-.188-.176-3.685-3.79-3.6-9.842.176-13.508 3.79-3.685 9.834-3.61 13.52.177l194.817 200.313c2.127 2.19 2.146 5.7 0 7.91z"/>
</svg>