<svg xmlns="http://www.w3.org/2000/svg" viewBox="0 0 533.333 533.333">
  <path d="M165.494 533.333C129.95 459.37 148.878 416.99 176.197 377.06c29.917-43.727 37.627-87.012 37.627-87.012s23.518 30.573 14.11 78.39c41.548-46.25 49.39-119.938 43.115-148.16 93.913 65.63 134.05 207.738 79.96 313.055 287.694-162.776 71.56-406.34 33.933-433.775 12.543 27.435 14.922 73.88-10.416 96.42C331.635 33.333 225.583 0 225.583 0c12.543 83.877-45.466 175.596-101.404 244.13-1.966-33.446-4.054-56.525-21.642-88.53-3.948 60.757-50.38 110.284-62.955 171.16C22.55 409.2 52.34 469.562 165.493 533.333z"/>
</svg>