<svg xmlns="http://www.w3.org/2000/svg" viewBox="0 0 611.999 611.999">
  <path d="M216.02 611.195c5.978 3.178 12.284-3.704 8.624-9.4-19.866-30.92-38.678-82.947-8.706-149.952 49.982-111.737 80.396-169.61 80.396-169.61s16.177 67.537 60.03 127.586c42.204 57.792 65.305 130.477 28.063 191.028-3.495 5.683 2.668 12.388 8.607 9.35 46.1-23.583 97.806-70.886 103.64-165.018 2.15-28.764-1.075-69.034-17.206-119.85-20.74-64.407-46.24-94.46-60.992-107.366-4.413-3.86-11.276-.44-10.914 5.413 4.3 69.494-21.845 87.13-36.726 47.386-5.943-15.874-9.41-43.33-9.41-76.766 0-55.665-16.15-112.967-51.754-159.53-9.26-12.11-20.093-23.425-32.523-33.074-4.5-3.494-11.024.018-10.612 5.7 2.734 37.736.257 145.885-94.624 275.09-86.03 119.85-52.693 211.895-40.864 236.825 22.616 47.76 54.162 75.806 84.97 92.187z"/>
</svg>