<svg xmlns="http://www.w3.org/2000/svg" viewBox="0 0 329.928 329.928">
  <path d="M232.478 13.406c-24.56 0-48.827 9.248-67.51 25.28-18.69-16.033-42.957-25.28-67.517-25.28C42.807 13.406 0 56.212 0 110.856c0 66.056 45.99 106.43 115.604 167.544 5.95 5.224 12.09 10.614 18.41 16.202l.13.115 21.02 18.155c2.815 2.433 6.31 3.65 9.805 3.65s6.99-1.218 9.806-3.65l21.014-18.155.13-.114c41.606-36.796 72.8-64.966 95.37-92.44 26.36-32.088 38.638-61.1 38.638-91.305 0-54.646-42.805-97.452-97.45-97.452zM176.113 272.07l-11.146 9.63-11.143-9.626c-6.325-5.593-12.472-10.99-18.43-16.22C69.672 198.157 30 163.33 30 110.858c0-38.454 28.998-67.45 67.45-67.45 20.926 0 42.408 10.03 56.066 26.175 2.85 3.37 7.04 5.313 11.454 5.313 4.414 0 8.603-1.944 11.453-5.315 13.652-16.145 35.13-26.174 56.056-26.174 38.45 0 67.448 28.997 67.448 67.45 0 49.296-44.74 91.28-123.815 161.214z"/>
  <path d="M184.964 94.964h-40v40h-40v40h40v40h40v-40h40v-40h-40"/>
</svg>