<svg xmlns="http://www.w3.org/2000/svg" viewBox="0 0 290.226 290.226">
  <path d="M63.95 243.575c-1.944-3.578-4.4-6.907-7.362-9.87-3.106-3.1-6.626-5.632-10.4-7.63-4.51-2.386-.945-7.5-.945-7.5 4.616-7.022 8.825-14.078 12.305-20.225l-23.363-23.344h-22.68c-4.363 0-7.9-3.54-7.9-7.902 0-4.36 3.537-7.9 7.9-7.9H37.45c2.1 0 4.108.832 5.59 2.312l85.378 85.29c1.483 1.484 2.315 3.496 2.315 5.59v26.073c0 4.364-3.537 7.896-7.9 7.896-4.367 0-7.904-3.53-7.904-7.897v-22.8l-23.27-23.24c-6.282 3.708-13.583 8.253-20.817 13.25 0 0-4.145 2.95-6.892-2.105zM26.61 237.102c-7.106 0-13.784 2.764-18.812 7.784C2.778 249.9.016 256.572.016 263.664c0 7.097 2.764 13.762 7.782 18.776 5.027 5.016 11.706 7.783 18.812 7.785 7.102 0 13.78-2.77 18.804-7.785 5.023-5.015 7.79-11.682 7.79-18.776 0-7.093-2.768-13.764-7.79-18.778-5.022-5.02-11.702-7.784-18.804-7.784zM100.985 182.318c-3.502 3.5-9.232 3.5-12.734 0l-8.81-8.8c-3.5-3.498-3.5-9.223 0-12.72L229.833 10.563c3.502-3.498 10.4-6.727 15.33-7.175L282.024.036c4.93-.448 8.596 3.218 8.148 8.148l-3.346 36.79c-.448 4.93-3.68 11.826-7.182 15.325l-150.4 150.25c-3.502 3.5-9.232 3.5-12.734 0l-8.822-8.812c-3.502-3.498-3.502-9.223 0-12.722l125.92-125.803c1.854-1.848 1.856-4.852.003-6.702-1.847-1.852-4.852-1.852-6.708 0L100.985 182.317z"/>
</svg>