<svg xmlns="http://www.w3.org/2000/svg" viewBox="0 0 485.202 485.202">
  <path d="M318.416 106.132c8.378 0 15.163 6.784 15.163 15.166 0 8.38-6.786 15.16-15.164 15.16H166.788c-8.384 0-15.166-6.78-15.166-15.16 0-8.382 6.782-15.166 15.166-15.166h151.628zm8.765 45.488H158.005C82.887 206.41 30.32 322.526 30.32 396.27c0 99.182 95.036 88.605 212.28 88.605 117.24 0 212.282 10.576 212.282-88.604 0-73.744-52.566-189.86-127.7-244.65zM158.005 90.97H327.18s67.05-58.49 36.722-84.076C333.58-18.693 266.294 35.324 242.6 33.43c-23.692 1.894-90.978-52.123-121.302-26.536C90.97 32.48 158.004 90.97 158.004 90.97z"/>
</svg>