<svg xmlns="http://www.w3.org/2000/svg" viewBox="0 0 512.012 512.012">
  <path d="M505.756 475.587l-225.26-225.26 14.145-14.143c8.32-8.34 8.32-21.845 0-30.165l-7.636-7.638c13.035-6.656 46.293-8.384 90.453 7.7 5.952 2.156 12.63 1.558 18.112-1.663s9.258-8.726 10.24-15.02c.554-3.307 12.394-81.94-46.892-141.205C299.698-11.048 221.04.792 217.734 1.305c-6.293 1.002-11.797 4.778-15.02 10.26-3.22 5.483-3.84 12.117-1.642 18.09 16.98 46.72 18.54 82.69 13.312 96.108l-7.424-7.424c-3.99-4.012-9.408-6.252-15.083-6.252s-11.072 2.24-15.083 6.25l-58.453 58.454c-4.01 4.01-6.25 9.43-6.25 15.083s2.24 11.093 6.25 15.083l7.425 7.424c-13.42 5.227-49.344 3.67-96.085-13.333-5.952-2.177-12.63-1.558-18.112 1.642-5.483 3.243-9.26 8.747-10.26 15.02-.534 3.306-12.374 81.94 46.91 141.204 41.708 41.728 92.993 48.213 120.897 48.213 11.733 0 19.307-1.153 20.288-1.324 6.293-1.003 11.797-4.757 15.02-10.24 3.22-5.483 3.84-12.117 1.642-18.112-16.043-44.16-14.336-77.44-7.68-90.453l7.637 7.638c4.18 4.16 9.62 6.25 15.083 6.25 5.46 0 10.923-2.09 15.083-6.25l14.144-14.144L475.59 505.752c4.16 4.16 9.62 6.25 15.083 6.25s10.923-2.09 15.083-6.25c8.34-8.34 8.34-21.824 0-30.165z"/>
</svg>