<svg xmlns="http://www.w3.org/2000/svg" viewBox="0 0 492.904 492.904">
  <path d="M246.452.002C110.342.002 0 110.342 0 246.452c0 136.11 110.342 246.45 246.452 246.45s246.452-110.34 246.452-246.45c0-136.11-110.34-246.45-246.452-246.45zm197.16 246.45c0 44.22-14.81 84.942-39.488 117.867L271.097 231.264V51.002C368.2 63.195 443.61 146.108 443.61 246.452zM221.808 441.906c-37.144-4.66-71.115-19.607-98.89-42.022l98.89-98.885v140.907zm49.287-140.923l98.9 98.9c-27.788 22.415-61.757 37.362-98.9 42.022V300.982zM221.81 51.002v180.28L88.774 364.32C64.1 331.395 49.29 290.673 49.29 246.454c0-100.346 75.414-183.26 172.52-195.452z"/>
</svg>