<svg xmlns="http://www.w3.org/2000/svg" viewBox="0 0 383.344 383.345">
  <path d="M273.217 106.9C246.037 62.034 215.804 23.205 200.2 4.052 198.114 1.488 194.98 0 191.674 0c-3.308 0-6.44 1.49-8.53 4.054-15.6 19.16-45.833 58-73.014 102.87-35.03 57.822-52.79 105.63-52.79 142.09 0 74.07 60.26 134.33 134.332 134.33s134.332-60.26 134.332-134.33c0-36.485-17.758-84.3-52.787-142.115zm-63.11 226.968c-7.845 2.006-15.987 3.022-24.206 3.022-50.185 0-91.014-37.93-91.014-84.55 0-11.255 2.97-24.405 8.825-39.083.99-2.48 3.808-3.895 6.586-3.295 2.776.598 4.64 3.018 4.354 5.65-.342 3.148-.516 6.223-.516 9.136 0 50.735 40.88 93.22 95.093 98.82 2.698.28 4.803 2.298 5.018 4.813.216 2.516-1.522 4.818-4.14 5.488z"/>
</svg>