<svg xmlns="http://www.w3.org/2000/svg" viewBox="0 0 264.695 264.695">
  <path d="M219.17 216.785c-4.76 0-10.32 2.3-16.67 6.88L167.287 210.7l35.734-12.978c6.003 3.888 11.558 5.833 16.682 5.833 5.64 0 9.347-2.917 11.117-8.733.352-1.235.528-2.57.528-3.98 0-7.398-4.766-11.38-14.295-11.9 3.876-3.883 5.828-7.688 5.828-11.393 0-3.87-2.038-7.15-6.09-9.797-2.12-1.05-4.326-1.584-6.616-1.584-7.77 0-13.064 6.258-15.887 18.797l-61.94 23.04-61.94-22.505c-2.824-12.885-8.126-19.332-15.886-19.332-2.292 0-4.5.535-6.62 1.584-3.875 2.647-5.82 5.926-5.82 9.797 0 3.705 1.945 7.51 5.82 11.392-9.7.52-14.554 4.502-14.554 11.9 0 1.41.18 2.746.526 3.98 1.946 5.816 5.65 8.733 11.122 8.733 5.113 0 10.67-1.945 16.677-5.832l36 12.978-35.477 12.698c-6.175-4.406-11.637-6.61-16.402-6.61-5.653 0-9.622 2.917-11.918 8.732-.348 1.235-.526 2.553-.526 3.975 0 7.405 4.853 11.385 14.555 11.907-3.875 3.883-5.82 7.688-5.82 11.393 0 3.87 1.945 7.134 5.82 9.797 2.478 1.412 4.855 2.105 7.154 2.105 7.227 0 12.443-6.176 15.62-18.525l61.672-22.504 61.678 22.504c3.178 12.35 8.475 18.525 15.882 18.525 2.12 0 4.407-.693 6.884-2.105 4.052-2.663 6.092-5.928 6.092-9.797 0-3.705-1.953-7.51-5.828-11.393 9.528-.522 14.295-4.502 14.295-11.907 0-1.422-.178-2.74-.528-3.975-2.12-5.816-6.002-8.733-11.65-8.733z"/>
  <path d="M48.436 128.904c9.703 11.114 23.38 19.242 41.035 24.346v3.986c0 4.936 1.673 9.086 5.026 12.433 3.35 3.357 7.498 5.21 12.44 5.562 5.117.357 8.906-.528 11.38-2.646 3.878 2.817 8.203 4.23 12.973 4.23 4.41 0 8.473-1.317 12.174-3.964 2.47 1.934 6.087 2.738 10.856 2.38 4.937-.527 9.09-2.425 12.44-5.688 3.35-3.28 5.025-7.37 5.025-12.307v-2.91c19.057-4.945 33.795-13.237 44.21-24.898 10.06-11.11 15.087-24.254 15.087-39.436 0-3.36-.355-6.886-1.063-10.597-3.526-22.57-13.94-41.2-31.23-55.844C180.612 7.856 158.464 0 132.347 0c-26.123 0-48.27 7.767-66.44 23.282C48.61 38.118 38.29 56.825 34.937 79.396c-.71 3.71-1.064 7.238-1.064 10.597 0 14.824 4.85 27.785 14.563 38.91zm104.43-68.155c5.205-6.086 11.513-9.13 18.92-9.13 7.593 0 13.987 3.044 19.195 9.13 5.2 6.075 7.81 13.445 7.81 22.086 0 8.65-2.608 16.02-7.81 22.108-5.207 6.097-11.602 9.13-19.193 9.13-7.408 0-13.716-3.033-18.922-9.13-5.21-6.087-7.814-13.46-7.814-22.108 0-8.64 2.604-16.01 7.815-22.087zm-28.06 60.678c2.555-3.307 5.064-4.968 7.54-4.968 2.47 0 4.803 1.83 7.013 5.51 2.204 3.66 3.316 7.144 3.316 10.468 0 5.062-3.36 7.58-10.067 7.58-4.415 0-7.678-1.135-9.793-3.395-1.237-1.41-1.85-3.147-1.85-5.25.002-3.308 1.278-6.62 3.838-9.945zm-53.34-60.68c5.294-6.084 11.65-9.13 19.058-9.13 7.406 0 13.762 3.046 19.06 9.13 5.296 6.077 7.948 13.447 7.948 22.088 0 8.65-2.65 16.02-7.948 22.108-5.297 6.097-11.654 9.13-19.06 9.13-7.41 0-13.764-3.033-19.06-9.13-5.29-6.087-7.943-13.46-7.943-22.108 0-8.64 2.653-16.01 7.945-22.087z"/>
</svg>