<svg xmlns="http://www.w3.org/2000/svg" viewBox="0 0 488.683 488.683">
  <path d="M478.467 376.122l-58.143-58.19c-14.212-14.218-27.14-29.663-38.648-46.16L253.872 88.378c-2.153-3.087-5.68-4.93-9.45-4.93-3.765 0-7.292 1.842-9.444 4.93l-127.81 183.36c-11.518 16.513-24.463 31.982-38.706 46.216l-58.08 58.087c-8.526 8.53-12.058 20.86-9.32 32.6l15.92 68.343c1.22 5.213 5.857 8.9 11.204 8.9h173.7l42.553-220.375 42.54 220.377h173.665c5.35 0 9.985-3.688 11.205-8.9l15.92-68.272c2.74-11.743-.776-24.063-9.303-32.593zM60.264 120.473c18.454 0 34.895-8.325 45.94-21.39.812-.956.966-2.31.398-3.425-.568-1.116-1.756-1.78-3.023-1.684-1.363.11-2.753.165-4.147.165-33.28 0-60.264-26.983-60.264-60.263 0-9.56 2.28-18.57 6.25-26.587.554-1.124.398-2.468-.428-3.41-.822-.952-2.117-1.315-3.305-.936C17.505 10.78 0 33.426 0 60.21c0 33.28 26.982 60.263 60.264 60.263zM155.23 45.522c.398.38.588.936.493 1.472l-2.185 12.692c-.11.626.143 1.26.663 1.63.51.372 1.19.42 1.76.128l11.393-5.997c.492-.254 1.06-.254 1.553 0l11.393 5.997c.57.292 1.25.244 1.758-.127.52-.372.774-1.005.663-1.63l-2.183-12.693c-.096-.536.095-1.09.492-1.472l9.206-8.99c.445-.434.62-1.097.413-1.7-.192-.6-.712-1.044-1.348-1.13L176.58 31.85c-.552-.08-1.013-.42-1.25-.91l-5.713-11.544c-.27-.57-.854-.927-1.485-.927-.636 0-1.22.357-1.49.926l-5.71 11.545c-.24.49-.7.83-1.252.91l-12.723 1.85c-.636.088-1.156.53-1.347 1.133-.206.602-.03 1.265.413 1.7l9.207 8.99zM333.158 56.348c.392.38.567.934.488 1.472l-2.185 12.69c-.106.626.144 1.26.668 1.63.505.372 1.188.42 1.756.128l11.395-5.998c.488-.254 1.06-.254 1.55 0l11.395 5.998c.567.292 1.247.244 1.755-.127.52-.37.775-1.004.664-1.63l-2.186-12.69c-.075-.538.096-1.092.493-1.472l9.212-8.99c.44-.434.6-1.1.41-1.7-.188-.603-.712-1.046-1.344-1.133l-12.725-1.85c-.553-.08-1.014-.42-1.248-.91L347.54 30.22c-.267-.57-.854-.925-1.486-.925-.635 0-1.22.355-1.49.925l-5.71 11.545c-.24.49-.696.83-1.252.91l-12.723 1.85c-.633.087-1.156.53-1.348 1.132-.187.602-.03 1.267.413 1.702l9.213 8.988zM411.48 203.222c.392.38.583.936.487 1.472l-2.185 12.693c-.11.625.143 1.26.667 1.63.504.372 1.183.42 1.755.127l11.392-5.998c.493-.254 1.06-.254 1.554 0l11.393 5.998c.57.292 1.25.245 1.76-.127.52-.37.774-1.005.663-1.63l-2.185-12.693c-.095-.536.096-1.09.493-1.472l9.21-8.988c.442-.435.617-1.1.41-1.7-.19-.602-.71-1.045-1.346-1.132l-12.723-1.85c-.553-.08-1.014-.42-1.252-.91l-5.71-11.546c-.272-.57-.855-.927-1.487-.927-.635 0-1.22.356-1.49.926l-5.71 11.545c-.24.492-.696.83-1.252.91l-12.723 1.852c-.636.087-1.155.53-1.347 1.132-.206.602-.03 1.265.414 1.7l9.212 8.988z"/>
</svg>