<svg xmlns="http://www.w3.org/2000/svg" viewBox="0 0 512 512">
  <path d="M495.664 318.553l-17.338-31.233-67.478 37.458-24.212-13.98 24.58-12.152-15.833-32.02-45.925 22.71-29.963-17.3c1.298-5.134 1.993-10.504 1.993-16.036s-.695-10.902-1.993-16.035l29.963-17.3 45.925 22.71 15.833-32.02-24.58-12.155 24.212-13.98 67.478 37.46 17.338-31.232-48.74-27.056 39.708-22.924-17.86-30.934-39.707 22.924.938-55.737-35.716-.6-1.298 77.168-24.213 13.98 1.765-27.363-35.647-2.3-3.297 51.127-30.004 17.323c-7.675-7.455-17.163-13.044-27.733-16.046v-34.612l42.63-28.42-19.815-29.723-22.814 15.21V87.507L340.04 47.8l-18.38-30.63-47.8 28.68V0h-35.72v45.85l-47.8-28.68-18.38 30.63 66.18 39.708v27.956l-22.814-15.21-19.814 29.722 42.628 28.42v34.61c-10.57 3.003-20.057 8.592-27.733 16.047l-30.004-17.323-3.297-51.126-35.647 2.3 1.764 27.36-24.212-13.978-1.298-77.167-35.716.6.938 55.736-39.707-22.923-17.86 30.934 39.706 22.924-48.74 27.058 17.34 31.23 67.477-37.457 24.212 13.98-24.58 12.154 15.833 32.02 45.925-22.71 29.963 17.3c-1.298 5.134-1.993 10.504-1.993 16.036s.695 10.902 1.993 16.035l-29.963 17.3-45.925-22.71-15.833 32.02 24.58 12.154-24.212 13.978-67.48-37.458-17.337 31.23 48.74 27.057-39.708 22.926 17.86 30.934 39.707-22.924-.938 55.737 35.716.6 1.298-77.167 24.213-13.98-1.765 27.363 35.647 2.3 3.297-51.127 30.004-17.324c7.675 7.455 17.163 13.044 27.733 16.046v34.61l-42.63 28.42 19.815 29.722 22.814-15.208v27.956L171.96 464.2l18.378 30.63 47.8-28.68V512h35.722v-45.85l47.8 28.68 18.38-30.63-66.18-39.708v-27.956l22.814 15.21 19.814-29.722-42.628-28.42v-34.61c10.57-3.003 20.057-8.592 27.733-16.047l30.004 17.323 3.297 51.126 35.647-2.3-1.764-27.36 24.212 13.978 1.298 77.167 35.716-.6-.938-55.736 39.707 22.924 17.86-30.934-39.706-22.924 48.74-27.057z"/>
</svg>