<svg xmlns="http://www.w3.org/2000/svg" viewBox="0 0 69.406 69.407">
  <path d="M32.95 34.21H3.84c-1.138 0-2.163-.686-2.597-1.74-.43-1.053-.178-2.25.63-3.054L26.1 5.604H3.84c-1.55 0-2.8-1.267-2.8-2.802C1.04 1.248 2.29 0 3.84 0h29.11c1.136 0 2.163.69 2.592 1.743.432 1.053.18 2.252-.627 3.053L10.687 28.61H32.95c1.545 0 2.802 1.26 2.802 2.802 0 1.55-1.262 2.8-2.803 2.8zm32.612 5.757H51.85l15.687-15.42c.812-.807 1.05-2 .63-3.053-.43-1.053-1.466-1.747-2.604-1.747H44.995c-1.538 0-2.802 1.255-2.802 2.8 0 1.536 1.264 2.803 2.802 2.803h13.72L43.028 40.766c-.818.81-1.058 1.998-.627 3.054.434 1.062 1.456 1.75 2.595 1.75H65.56c1.55 0 2.803-1.258 2.803-2.8 0-1.545-1.253-2.803-2.8-2.803zM33.935 63.804H24.37L35.9 52.477c.814-.8 1.06-2.01.63-3.063-.432-1.052-1.46-1.74-2.596-1.74h-16.41c-1.547 0-2.803 1.257-2.803 2.8s1.257 2.803 2.804 2.803h9.565L15.556 64.602c-.812.81-1.06 1.998-.627 3.054.43 1.056 1.456 1.75 2.595 1.75h16.41c1.548 0 2.802-1.258 2.802-2.8s-1.243-2.802-2.802-2.802z"/>
</svg>