<svg xmlns="http://www.w3.org/2000/svg" viewBox="0 0 209.841 209.841">
  <path d="M209.572 57.2c2.77-26.837-16.525-41.194-27.115-45.036-2.348-.854-5.24-.063-6.402 2.15-1.134 2.16-.8 4.6 1.106 6.065.552.878 3.11 5.73 2.414 19.116-.13 2.48-.472 9.068-13.93 9.07-1.47 0-2.824-.09-3.93-.2-.957-2-2.527-4.618-4.926-8.26-3.986-6.054-10.233-9.253-18.067-9.253-4.53 0-9.62 1.157-13.967 3.175-4.647 2.158-15.527 3.447-19.834 3.81-4.308-.362-15.187-1.65-19.834-3.81-4.346-2.018-9.437-3.175-13.968-3.175-7.834 0-14.08 3.2-18.067 9.252-2.397 3.643-3.968 6.262-4.926 8.26-1.105.11-2.46.2-3.93.2-13.457 0-13.8-6.59-13.93-9.07C29.57 26.11 32.128 21.26 32.68 20.38c1.907-1.466 2.24-3.906 1.106-6.065-1.162-2.213-4.052-3.005-6.402-2.15C16.794 16.004-2.5 30.364.27 57.2 2.185 75.776 10.485 83.244 17.58 86.198c-5.747 5.5-11.913 12.858-12.09 19.237-.123 4.396 1.027 7.87 3.417 10.328 2.53 2.602 6.18 3.866 11.16 3.866 2.266 0 4.866-.256 7.95-.78 7.076-1.204 14.068-2.94 18.456-4.112 2.317 6.3 6.745 17.98 10.533 25.902 4.03 8.428 5.998 16.358 6.57 18.91-.758 4.618-2.663 20.932 6.328 29.922 7.06 7.06 20.983 8.542 31.42 8.542 1.763 0 3.045-.05 3.592-.075.548.025 1.83.075 3.59.075 10.44 0 24.364-1.482 31.423-8.542 8.99-8.99 7.086-25.303 6.328-29.92.574-2.56 2.542-10.486 6.572-18.912 3.788-7.922 8.216-19.602 10.533-25.902 4.388 1.173 11.38 2.907 18.456 4.11 3.085.526 5.686.782 7.95.782 4.98 0 8.632-1.265 11.162-3.866 2.39-2.457 3.54-5.932 3.418-10.33-.178-6.377-6.344-13.735-12.09-19.235 7.096-2.954 15.395-10.42 17.312-28.997zM59.048 101.576c0-4.13 1.86-7.97 5.106-10.54 1.89-1.5 4.578-1.433 6.396.153l12.5 10.927c1.816 1.588 2.24 4.245 1.01 6.318-2.417 4.065-6.847 6.59-11.562 6.59-7.416.002-13.45-6.033-13.45-13.45zm25.42 82.566c-.9.35-1.843.527-2.804.527-4.59 0-8.6-3.99-9.976-9.93-1.582-6.825.796-13.148 5.654-15.035.9-.35 1.845-.527 2.804-.527 4.59 0 8.6 3.99 9.976 9.93 1.582 6.824-.796 13.147-5.654 15.034zm53.83-9.402c-1.377 5.938-5.386 9.93-9.976 9.93-.96 0-1.904-.178-2.805-.528-4.857-1.886-7.235-8.21-5.653-15.034 1.377-5.938 5.386-9.93 9.976-9.93.96 0 1.902.178 2.803.527 4.86 1.887 7.237 8.21 5.655 15.035zm-.955-59.713c-4.715 0-9.145-2.525-11.56-6.59-1.232-2.074-.81-4.73 1.007-6.32l12.5-10.927c1.818-1.586 4.507-1.652 6.397-.154 3.245 2.57 5.106 6.412 5.106 10.54 0 7.416-6.034 13.45-13.45 13.45z"/>
</svg>