<svg xmlns="http://www.w3.org/2000/svg" viewBox="0 0 512 512">
  <path d="M437.034 437.002C483.352 390.676 512 326.682 512 256c0-70.6-28.583-134.526-74.806-180.84-.06-.06-.11-.126-.17-.187-.06-.06-.126-.11-.187-.17C390.523 28.583 326.6 0 256 0S121.477 28.582 75.164 74.804c-.06.06-.128.11-.188.17-.06.06-.11.127-.17.188C28.584 121.474 0 185.4 0 256c0 70.683 28.648 134.676 74.966 181.002l.014.015c.005.005.01.01.015.013C121.32 483.35 185.315 512 256 512s134.68-28.65 181.005-74.97l.015-.012.014-.016zM43.726 277.332H151.47c2.765 13.618 8.127 26.29 15.542 37.484l-76.188 76.188c-25.865-31.606-42.838-70.767-47.098-113.67zm47.1-156.34l76.187 76.19c-7.415 11.195-12.78 23.867-15.544 37.485H43.725c4.26-42.905 21.234-82.067 47.1-113.674zm377.448 113.675H360.53c-2.764-13.618-8.127-26.29-15.543-37.486l76.188-76.186c25.865 31.606 42.84 70.768 47.1 113.673zm-167.024 66.58c-.022.023-.04.047-.062.07C289.61 312.86 273.638 320 256 320s-33.61-7.14-45.188-18.684c-.022-.022-.04-.046-.062-.068-.022-.022-.046-.04-.067-.06C199.14 289.61 192 273.637 192 256c0-35.343 28.657-64 64-64s64 28.657 64 64c0 17.638-7.14 33.61-18.683 45.187-.02.022-.045.04-.067.06zm13.567-134.236c-11.195-7.413-23.867-12.776-37.483-15.54V43.725c42.904 4.26 82.065 21.234 113.67 47.098l-76.187 76.187zm-80.15-15.54c-13.617 2.764-26.288 8.126-37.483 15.54l-76.188-76.187c31.606-25.864 70.767-42.838 113.67-47.098V151.47zM197.18 344.986c11.197 7.415 23.87 12.78 37.487 15.544v107.745c-42.905-4.26-82.067-21.235-113.674-47.1l76.188-76.188zm80.153 15.544c13.618-2.764 26.29-8.127 37.486-15.543l76.187 76.188c-31.607 25.865-70.77 42.84-113.674 47.1V360.53zm67.656-45.713c7.413-11.195 12.776-23.867 15.54-37.483h107.745c-4.26 42.904-21.234 82.065-47.098 113.67l-76.188-76.187z"/>
</svg>