<svg xmlns="http://www.w3.org/2000/svg" viewBox="0 0 105.144 105.144">
  <path d="M98.126 30.812c-9.885-11.406-33.412-10.61-35.012-1.417-1.328 7.66 6.71 11.943 10.554 15.915 4.445 4.592 5.2 12.01 1.535 17.07-1.528 2.102-10.65 11.332-7.938 20.447 1.378 4.624 4.48 6.696 8.54 7.537 13.495 2.81 14.92-7.9 15.06-12.65.124-4.46.79-8.794 2.626-12.878 4.507-10.246 11.34-26.286 4.636-34.024zM63.99.045c3.054-.49 6.167 3.114 6.958 8.045.79 4.932-1.034 9.33-4.083 9.82-3.053.49-6.163-3.114-6.957-8.045-.788-4.932 1.037-9.33 4.083-9.82zM81.83 9.37c.186 3.455-1.39 6.346-3.522 6.464-2.137.115-4.015-2.59-4.205-6.045s1.393-6.346 3.523-6.464c2.133-.114 4.015 2.592 4.205 6.045zm8.96 2.492c.155 2.802-1.126 5.154-2.862 5.247-1.736.092-3.257-2.102-3.41-4.908-.155-2.806 1.123-5.154 2.86-5.25 1.735-.097 3.263 2.104 3.413 4.91zm5.527 4.144c-.147 2.072-1.306 3.68-2.588 3.586-1.28-.09-2.2-1.843-2.054-3.915s1.303-3.68 2.588-3.586c1.278.09 2.202 1.844 2.055 3.916zm3.915 4.89c-.115 1.652-1.04 2.934-2.065 2.862-1.02-.075-1.757-1.474-1.643-3.128.118-1.653 1.045-2.935 2.07-2.863 1.023.075 1.756 1.478 1.638 3.128zM42.027 43.71c-1.6-9.194-25.127-9.985-35.008 1.417-6.704 7.737.12 23.78 4.634 34.024 1.836 4.088 2.498 8.415 2.627 12.874.14 4.753 1.57 15.46 15.06 12.658 4.06-.845 7.162-2.913 8.537-7.54 2.713-9.116-6.406-18.346-7.934-20.447-3.668-5.06-2.913-12.476 1.532-17.07 3.842-3.972 11.88-8.256 10.552-15.915zM34.186 22.41c.795-4.933 3.908-8.537 6.954-8.046 3.046.49 4.874 4.885 4.083 9.82-.795 4.932-3.908 8.536-6.954 8.045-3.05-.49-4.875-4.886-4.084-9.82zm-3.14 1.692c-.185 3.454-2.07 6.16-4.204 6.04-2.137-.114-3.715-3.01-3.525-6.462.19-3.454 2.072-6.16 4.205-6.04 2.133.116 3.715 3.012 3.525 6.462zm-10.42 2.42c-.154 2.805-1.678 5-3.41 4.906-1.73-.093-3.01-2.444-2.857-5.247.15-2.805 1.677-5.002 3.41-4.91 1.73.097 3.006 2.45 2.856 5.25zm-7.158 3.47c.147 2.072-.773 3.826-2.05 3.915s-2.438-1.517-2.585-3.59.773-3.826 2.05-3.915c1.282-.09 2.438 1.518 2.585 3.59zm-4.86 4.96c.118 1.654-.616 3.057-1.64 3.13-1.02.07-1.942-1.21-2.06-2.864-.118-1.653.616-3.056 1.636-3.128 1.023-.075 1.946 1.206 2.064 2.863z"/>
</svg>