<svg xmlns="http://www.w3.org/2000/svg" viewBox="0 0 297.288 297.288">
  <path d="M.207 83.397c8.326 37.91 36.12 147.72 36.12 147.72 1.455 5.892 6.74 9.964 12.743 9.964.262 0 .524-.017.79-.032 6.322-.377 11.475-5.22 12.25-11.505l9.982-80.853 13.583 9.816c4.592 3.32 10.793 3.32 15.388 0l20.256-14.643 20.255 14.642c2.297 1.66 4.995 2.49 7.693 2.49 2.697 0 5.396-.83 7.692-2.49l20.26-14.644 20.26 14.646c4.593 3.318 10.796 3.318 15.387 0l12.602-9.107 9.9 80.28c.774 6.286 5.93 11.124 12.252 11.5.265.017.526.024.787.024 6.003 0 11.29-4.093 12.743-9.986 0 0 27.42-110.076 35.896-146.174 1.657-7.062-5.69-14.236-12.943-14.236H13.374c-7.252 0-14.722 5.506-13.167 12.59zm44.56 72.635L30.142 96.807h21.934l-7.31 59.224zm160.41-24.374l-20.264-14.644c-4.593-3.32-10.795-3.32-15.386 0l-20.26 14.643-20.255-14.642c-4.594-3.32-10.795-3.32-15.388 0L93.37 131.658l-17.606-12.545 2.776-22.306h140.4l2.86 23.017-16.624 11.836zm47.54 24.448l-7.313-59.3h21.94l-14.628 59.3zM78.41 271.02c-3.456 0-6.84 1.394-9.286 3.84-2.444 2.444-3.848 5.83-3.848 9.294 0 3.455 1.403 6.84 3.848 9.284 2.445 2.445 5.83 3.85 9.285 3.85 3.452 0 6.836-1.404 9.28-3.85 2.445-2.444 3.85-5.83 3.85-9.283 0-3.464-1.404-6.85-3.85-9.294-2.444-2.444-5.83-3.837-9.282-3.837z"/>
  <path d="M100.046 179.227c-3.454 0-6.84 1.405-9.284 3.85-2.444 2.445-3.85 5.828-3.85 9.283 0 3.456 1.405 6.84 3.85 9.284 2.445 2.444 5.83 3.85 9.284 3.85 3.455 0 6.84-1.405 9.283-3.85 2.444-2.444 3.85-5.828 3.85-9.284 0-3.455-1.405-6.838-3.85-9.283-2.446-2.445-5.83-3.85-9.285-3.85zm96.294-41.205c-3.455 0-6.84 1.404-9.285 3.85-2.444 2.443-3.85 5.827-3.85 9.283 0 3.455 1.405 6.84 3.85 9.283 2.445 2.445 5.83 3.85 9.284 3.85 3.453 0 6.837-1.404 9.28-3.85 2.446-2.444 3.85-5.828 3.85-9.283 0-3.456-1.403-6.84-3.85-9.284-2.443-2.443-5.827-3.847-9.282-3.847zm43.277 93.252c-3.455 0-6.84 1.403-9.284 3.848-2.444 2.445-3.85 5.83-3.85 9.285s1.405 6.838 3.85 9.284c2.444 2.446 5.84 3.85 9.284 3.85 3.455 0 6.84-1.403 9.283-3.85 2.455-2.444 3.85-5.827 3.85-9.282s-1.405-6.84-3.85-9.285c-2.444-2.445-5.828-3.848-9.283-3.848z"/>
</svg>